<?xml version="1.0" encoding="utf-8"?>
<svg version="1.1" xmlns="http://www.w3.org/2000/svg" x="0px" y="0px" viewBox="0 0 500 500" style="enable-background:new 0 0 500 500;">
  <g id="OBJECTS">
    <g transform="matrix(1, 0, 0, 1, 78.253685, 70.840202)">
      <path style="fill:#E6710B;" d="M173.687,217.385c8.776-10.475,8.403-27.078,5.491-41.186c-2.877-13.939-6.964-27.99-13.325-40.392 c-6.171-12.033-13.23-19.345-25.369-21.71c-15.214-2.965-23.86,8.346-30.313,23.355c-6.319,14.695-8.606,29.921-12.898,45.118 c-3.644,12.904-1.725,25.17,8.154,35.452C120.868,234.09,158.872,235.067,173.687,217.385z"/>
      <path style="fill:#CF560A;" d="M178.016,170.866c0.408,1.777,0.795,3.555,1.162,5.332c2.912,14.108,3.285,30.712-5.491,41.186 c-14.815,17.683-52.82,16.706-68.26,0.636c-9.879-10.282-11.798-22.548-8.154-35.452c0.773-2.737,1.48-5.475,2.158-8.211 c10.442,5.05,21.776,8.483,33.647,10.178C149.437,187.154,166.286,181.844,178.016,170.866z"/>
      <g>
        <path style="fill:#E6710B;" d="M109.914,182.578c0.737,4.969-0.046,11.531-5.348,11.341c-0.155,0.003-0.304-0.013-0.452-0.032 c-2.249-9.619-5.715-28.222,5.976-26.109c5.482,0.991,6.087,9.44,7.074,13.882c0.335,1.509,0.659,3.02,0.992,4.529 C114.981,190.855,112.696,184.641,109.914,182.578z"/>
        <path style="fill:#803F21;" d="M111.85,222.55c-2.688-8.015-4.787-16.233-6.722-24.458c-0.23-0.977-0.602-2.44-1.014-4.205 c0.148,0.019,0.297,0.036,0.452,0.032c5.302,0.19,6.086-6.372,5.348-11.341c2.781,2.063,5.067,8.277,8.241,3.61 c1.052,4.777,2.1,9.555,3.138,14.335c1.965,9.049,3.919,18.1,5.862,27.154c0,0,1.444,17.624-7.226,10.969 C115.46,235.214,113.541,227.593,111.85,222.55z"/>
      </g>
      <g>
        <path style="fill:#E6710B;" d="M161.1,181.034c-2.146,4.542-6.443,9.563-10.746,6.46c-0.131-0.083-0.245-0.18-0.358-0.278 c3.472-9.249,10.923-26.643,19.471-18.393c4.008,3.869-0.181,11.231-1.827,15.473c-0.559,1.441-1.129,2.877-1.691,4.317 C160.716,190.731,162.267,184.294,161.1,181.034z"/>
        <path style="fill:#803F21;" d="M140.509,215.349c2.217-8.158,5.035-16.158,7.995-24.072c0.351-0.94,0.855-2.363,1.492-4.06 c0.113,0.098,0.227,0.195,0.358,0.278c4.303,3.102,8.6-1.919,10.746-6.46c1.167,3.26-0.384,9.697,4.848,7.579 c-1.779,4.557-3.56,9.112-5.352,13.663c-3.392,8.616-6.795,17.228-10.207,25.836c0,0-8.588,15.458-12.101,5.108 C136.476,227.885,139.114,220.482,140.509,215.349z"/>
      </g>
      <path style="fill:#E6710B;" d="M140.484,114.096c12.139,2.366,19.198,9.678,25.369,21.71c5.55,10.822,9.368,22.898,12.163,35.06 c-11.73,10.978-28.579,16.287-44.938,13.67c-11.871-1.696-23.205-5.128-33.647-10.178c3.087-12.453,5.559-24.859,10.74-36.907 C116.625,122.442,125.27,111.131,140.484,114.096z"/>
      <path style="fill:#E6D3A3;" d="M115.737,153.253c0.481,5.561,1.368,12.783,1.275,12.871c2.605-2.481,5.211-4.963,7.816-7.444 c2.511,10.049,5.023,20.099,7.535,30.148c10.593-8.048,18.049-20.12,20.503-33.196c2.108,3.525,4.217,7.05,6.325,10.575 c5.381-14.311,6.67-28.424-6.057-38.3c-12.455-9.665-22.25-4.557-30.889,6.538c-3.425,4.398-5.61,6.934-6.739,12.748 C115.35,147.986,115.49,150.401,115.737,153.253z"/>
      <path style="fill:#E6D3A3;" d="M118.654,139.26c14.198,2.953,28.581,2.923,41.762-2.797c4.481,8.724,2.746,19.179-1.226,29.744 c-2.108-3.525-4.217-7.05-6.325-10.575c-2.453,13.075-9.909,25.148-20.503,33.196c-2.511-10.049-5.023-20.099-7.535-30.148 c-2.605,2.481-5.211,4.963-7.816,7.444c0.093-0.088-0.795-7.31-1.275-12.871c-0.246-2.852-0.386-5.267-0.232-6.06 C116.172,143.757,117.211,141.467,118.654,139.26z"/>
      <path style="fill:#CCBB91;" d="M118.654,139.26c0.999-1.528,2.189-3.016,3.589-4.814c8.639-11.095,18.434-16.203,30.889-6.538 c3.332,2.585,5.695,5.463,7.284,8.556C147.235,142.183,132.853,142.213,118.654,139.26z"/>
      <path style="fill:#E6710B;" d="M160.48,77.525c0.971,0.911,1.994,1.77,3.054,2.561c3.465,2.614,7.37,4.615,11.522,5.854 c1.643,0.5,3.323,0.881,5.033,1.135c9.991-9.962,12.956-26.3,7.102-39.137C172.832,51.016,161.742,62.897,160.48,77.525z"/>
      <path style="fill:#803F21;" d="M163.535,80.087c3.465,2.614,7.37,4.615,11.522,5.854c0.261-0.194,0.508-0.426,0.739-0.694 c5.638-6.445,7.766-16.122,5.391-24.538C172.809,64.062,166.417,71.171,163.535,80.087z"/>
      <path style="fill:#E6710B;" d="M116.907,77.525c-0.971,0.911-1.994,1.77-3.054,2.561c-3.465,2.614-7.37,4.615-11.522,5.854 c-1.643,0.5-3.323,0.881-5.033,1.135c-9.992-9.962-12.956-26.3-7.102-39.137C104.556,51.016,115.645,62.897,116.907,77.525z"/>
      <path style="fill:#803F21;" d="M113.853,80.087c-3.465,2.614-7.37,4.615-11.522,5.854c-0.261-0.194-0.508-0.426-0.739-0.694 c-5.638-6.445-7.766-16.122-5.392-24.538C104.578,64.062,110.97,71.171,113.853,80.087z"/>
      <path style="fill:#F18628;" d="M78.185,115.941c37.742,19.31,84.596,19.674,122.634,0.955 c-7.85-27.201-31.976-52.323-60.281-52.203C112.226,64.813,85.805,88.68,78.185,115.941z"/>
      <path style="fill:#E6D3A3;" d="M78.185,115.941c37.742,19.31,84.596,19.674,122.634,0.955c0,0-42.44-54.026-58.669,8.45 l-6.445-0.894C135.706,124.451,127.265,55.9,78.185,115.941z"/>
      <path style="fill:#982626;" d="M130.421,125.151c1.381-2.138,7.201-1.702,9.071-1.606c1.748,0.09,6.553,0.259,7.673,1.823 c2.667,3.724-5.028,7.837-7.746,7.781c-2.102-0.043-4.128-0.963-5.738-2.28c-1.055-0.863-3.816-3.525-3.52-5.069 C130.206,125.561,130.295,125.345,130.421,125.151z"/>
      <path style="fill:#AB2B2B;" d="M135.163,126.016c0.709-1.02,1.785-0.972,2.943-1.058c1.226-0.091,2.796-0.186,3.819,0.598 c0.47,0.36,0.71,1.279,0,1.582c-0.977,0.417-1.934,0.311-2.979,0.327c-1.128,0.017-2.431,0.579-3.425-0.084 C135.096,127.098,134.839,126.481,135.163,126.016z"/>
      <path style="fill:#803F21;" d="M160.36,106.198c1.12-1.475,2.884-1.475,4.004,0c0.796,1.048,0.64,2.987,0.61,4.272 c-0.02,0.857-0.467,1.873-1.294,2.255c-0.976,0.452-1.661,0.452-2.636,0c-0.826-0.383-1.273-1.399-1.294-2.255 C159.72,109.185,159.564,107.246,160.36,106.198z"/>
      <path style="fill:#803F21;" d="M114.905,106.198c1.12-1.475,2.884-1.475,4.004,0c0.796,1.048,0.641,2.987,0.61,4.272 c-0.021,0.857-0.468,1.873-1.294,2.255c-0.976,0.452-1.661,0.452-2.637,0c-0.826-0.383-1.273-1.399-1.294-2.255 C114.264,109.185,114.109,107.246,114.905,106.198z"/>
      <path style="fill:#F1B480;" d="M142.55,94.499c0.094-0.713,0.182-1.432,0.327-2.136c0.115-0.555,1.016-0.43,0.985,0.133 c-0.041,0.765-0.149,1.53-0.245,2.289c-0.074,0.581-0.041,1.249-0.517,1.651c-0.162,0.137-0.368,0.11-0.49-0.063 C142.229,95.83,142.469,95.115,142.55,94.499z"/>
      <path style="fill:#F1B480;" d="M134.206,94.644c0.003-0.842,0.006-1.69,0.104-2.527c0.063-0.544,0.783-0.544,0.846,0 c0.085,0.734,0.092,1.473,0.103,2.212c0.01,0.696,0.139,1.46-0.201,2.086c-0.133,0.245-0.517,0.245-0.65,0 C134.106,95.859,134.203,95.264,134.206,94.644z"/>
      <path style="fill:#F1B480;" d="M139.804,103.519c0.002-0.689,0.01-1.383,0.091-2.068c0.067-0.563,0.808-0.563,0.875,0 c0.081,0.685,0.09,1.379,0.091,2.068c0.001,0.528,0.153,1.156-0.302,1.519c-0.149,0.119-0.305,0.119-0.454,0 C139.651,104.675,139.803,104.047,139.804,103.519z"/>
      <path style="fill:#F1B480;" d="M151.027,92.194c0.142-0.692,0.286-1.378,0.476-2.059c0.136-0.489,0.973-0.409,0.911,0.123 c-0.077,0.659-0.184,1.308-0.306,1.96c-0.113,0.606-0.132,1.221-0.526,1.71c-0.205,0.255-0.61,0.089-0.692-0.183 C150.731,93.225,150.92,92.716,151.027,92.194z"/>
      <path style="fill:#F1B480;" d="M147.016,85.889c0.118-0.776,0.297-1.542,0.686-2.229c0.23-0.406,0.757-0.108,0.698,0.294 c-0.096,0.657-0.262,1.303-0.373,1.958c-0.092,0.544,0.015,1.165-0.401,1.573c-0.117,0.115-0.331,0.13-0.445,0 C146.782,87.034,146.931,86.45,147.016,85.889z"/>
      <path style="fill:#F1B480;" d="M145.909,103.478c0.244-0.53,0.526-1.042,0.869-1.513c0.291-0.4,1.002-0.178,0.842,0.355 c-0.15,0.5-0.356,0.979-0.591,1.446c-0.172,0.342-0.438,0.905-0.929,0.735C145.648,104.343,145.757,103.808,145.909,103.478z"/>
      <path style="fill:#F1B480;" d="M132.241,101.525c0.361,0.658,0.726,1.55,0.767,2.303c0.027,0.487-0.641,0.616-0.877,0.237 c-0.397-0.639-0.591-1.586-0.673-2.328C131.411,101.311,132.05,101.177,132.241,101.525z"/>
      <path style="fill:#F1B480;" d="M138.781,83.331c0.161-0.242,0.554-0.222,0.634,0.083c0.1,0.378,0.066,0.762,0.055,1.149 c-0.015,0.497,0.024,0.994,0.029,1.49c0.008,0.715-0.989,0.665-1.076,0C138.315,85.234,138.306,84.045,138.781,83.331z"/>
      <path style="fill:#F1B480;" d="M129.099,83.92c0.058-0.387,0.715-0.385,0.776,0c0.1,0.629,0.184,1.256,0.33,1.877 c0.126,0.536,0.366,1.009,0.194,1.56c-0.047,0.149-0.2,0.2-0.334,0.136C128.967,86.971,128.946,84.938,129.099,83.92z"/>
      <path style="fill:#F1B480;" d="M145.383,79.5c0.081-0.523,0.15-1.071,0.307-1.578c0.154-0.498,0.919-0.413,0.917,0.124 c-0.003,0.576-0.113,1.167-0.2,1.736c-0.044,0.286-0.399,0.441-0.653,0.371C145.451,80.07,145.339,79.786,145.383,79.5z"/>
      <path style="fill:#F1B480;" d="M154.111,80.998c0.355-0.37,0.887,0.098,0.678,0.523c-0.359,0.728-0.651,1.437-0.808,2.237 c-0.134,0.685-1.121,0.379-1.027-0.283C153.084,82.559,153.466,81.668,154.111,80.998z"/>
      <path style="fill:#F1B480;" d="M132.012,80.582c0.112-0.688,0.29-1.349,0.451-2.023c0.123-0.515,0.982-0.413,0.934,0.126 c-0.053,0.588-0.089,1.168-0.171,1.755c-0.08,0.577-0.04,1.243-0.578,1.577c-0.148,0.092-0.393,0.076-0.509-0.066 C131.776,81.506,131.924,81.118,132.012,80.582z"/>
      <g>
        <path style="fill:#F18628;" d="M128.687,195.748c9.502-4.594,21.839-2.606,31.986-4.921c4.71-1.075,10.641-2.406,13.688-6.575 c1.62-2.217,5.145-14.973,3.257-15.7c10.957,4.217,19.399,20.077,20.365,31.133c2.038,23.331-14.94,34.879-35.456,37.891 c-12.314,1.808-31.811,0.763-41.578,9.57c-8.422,7.594-14.653,23.347-17.659,33.855c-11.752-4.214-18.448-17.774-18.942-30.243 c-0.431-10.916,3.94-21.575,10.692-30.229c0.965-1.239,1.978-2.442,3.039-3.593C106.521,207.742,117.447,201.185,128.687,195.748 z"/>
        <path style="fill:#E6710B;" d="M152.969,226.048c17.297-5.264,35.243-15.11,44.18-31.236c0.413,1.688,0.699,3.328,0.834,4.873 c2.038,23.331-14.94,34.879-35.456,37.891c-12.314,1.808-31.811,0.763-41.578,9.57c-8.422,7.594-14.653,23.347-17.659,33.855 c-11.752-4.214-18.448-17.774-18.942-30.243c-0.323-8.176,2.049-16.208,6.097-23.361 C110.476,232.986,132.624,232.239,152.969,226.048z"/>
        <path style="fill:#F18628;" d="M98.08,216.936c8.44-9.194,19.366-15.75,30.606-21.187c9.502-4.594,21.839-2.606,31.986-4.921 c4.71-1.075,10.641-2.406,13.688-6.575c1.62-2.217,5.145-14.973,3.257-15.7c9.426,3.628,16.986,15.87,19.531,26.26 c-8.937,16.126-26.883,25.971-44.18,31.236c-20.344,6.192-42.493,6.939-62.523,1.349c1.357-2.397,2.901-4.695,4.595-6.867 C96.005,219.29,97.019,218.087,98.08,216.936z"/>
        <path style="fill:#E6D3A3;" d="M84.348,250.757c-0.431-10.916,3.94-21.575,10.692-30.229c1.793-0.711,3.641-1.3,5.517-1.754 c-4.531,6.733-5.743,15.588-3.196,23.296c3.665-4.367,8.794-7.47,14.357-8.704c-4.05,4.549-5.352,11.372-3.269,17.093 c4.72-4.589,11.361-7.121,17.928-6.875c-10.886,10.078-19.005,23.142-23.088,37.416 C91.539,276.786,84.842,263.226,84.348,250.757z"/>
        <path style="fill:#F1B480;" d="M146.343,196.985c0.523,0.422,1.239,0.331,1.876,0.355c0.702,0.027,1.414,0.029,2.113-0.047 c0.414-0.045,0.332-0.596-0.017-0.674c-0.736-0.165-1.491-0.234-2.242-0.291c-0.627-0.047-1.196-0.157-1.748,0.188 C146.153,196.625,146.211,196.879,146.343,196.985z"/>
        <path style="fill:#F1B480;" d="M135.655,199.441c0.604,0.133,1.07-0.128,1.646-0.29c0.697-0.196,1.406-0.323,2.127-0.392 c0.526-0.05,0.51-0.933-0.023-0.93c-0.77,0.004-1.521,0.07-2.272,0.242c-0.65,0.15-1.326,0.307-1.685,0.91 C135.327,199.182,135.433,199.393,135.655,199.441z"/>
        <path style="fill:#F1B480;" d="M125.602,203.287c0.909-0.084,1.765-0.564,2.607-0.904c0.956-0.387,1.901-0.794,2.833-1.237 c0.461-0.219,0.146-0.858-0.319-0.706c-0.983,0.321-1.953,0.676-2.915,1.054c-0.847,0.333-1.781,0.574-2.5,1.14 C125.002,202.874,125.253,203.319,125.602,203.287z"/>
        <path style="fill:#F1B480;" d="M117.503,206.914c0.43,0.187,0.752-0.134,1.101-0.367c0.521-0.348,1.038-0.7,1.549-1.063 c0.404-0.286-0.04-1.007-0.465-0.744c-0.45,0.278-0.897,0.559-1.34,0.849c-0.39,0.256-1.031,0.491-1.03,1.026 C117.319,206.751,117.374,206.858,117.503,206.914z"/>
        <path style="fill:#F1B480;" d="M141.752,200.821c0.448,0.378,1.131,0.094,1.654,0.016c0.699-0.103,1.41-0.083,2.107-0.183 c0.32-0.046,0.37-0.514,0.064-0.624c-0.672-0.24-1.387-0.25-2.093-0.23c-0.611,0.017-1.57,0.02-1.837,0.674 C141.593,200.606,141.651,200.736,141.752,200.821z"/>
        <path style="fill:#F1B480;" d="M133.199,203.975c0.396,0.08,0.845-0.121,1.241-0.189c0.431-0.075,0.868-0.089,1.303-0.115 c0.478-0.028,0.396-0.713-0.02-0.789c-0.473-0.087-0.953-0.08-1.431-0.038c-0.427,0.038-1.001,0.089-1.314,0.405 C132.72,203.512,132.835,203.902,133.199,203.975z"/>
        <path style="fill:#F1B480;" d="M122.05,207.888c0.457,0.03,0.794-0.239,1.197-0.434c0.559-0.271,1.162-0.482,1.762-0.636 c0.476-0.122,0.382-0.843-0.12-0.766c-0.629,0.097-1.223,0.251-1.816,0.481c-0.498,0.193-1.075,0.398-1.299,0.907 C121.689,207.632,121.843,207.874,122.05,207.888z"/>
        <path style="fill:#F1B480;" d="M139.761,203.83c0.226-0.099,0.414-0.225,0.658-0.282c0.29-0.067,0.547,0.011,0.822-0.136 c0.159-0.085,0.27-0.288,0.175-0.464c-0.249-0.462-0.681-0.495-1.165-0.472c-0.423,0.02-0.871,0.246-1.135,0.571 C138.777,203.466,139.304,204.031,139.761,203.83z"/>
        <path style="fill:#F1B480;" d="M128.899,207.631c0.347-0.034,0.67-0.229,0.978-0.384c0.325-0.163,0.659-0.308,0.976-0.487 c0.48-0.272,0.17-0.959-0.352-0.778c-0.344,0.119-0.674,0.273-1.011,0.41c-0.32,0.13-0.679,0.242-0.935,0.48 C128.238,207.167,128.467,207.674,128.899,207.631z"/>
      </g>
    </g>
  </g>
</svg>